<svg width="30" height="30" viewBox="0 0 30 30" fill="none" xmlns="http://www.w3.org/2000/svg">
<path d="M13.7109 0.386688C13.5996 0.398407 13.2832 0.439422 13.0078 0.474578C8.17967 1.06052 3.84373 4.13669 1.58201 8.57809C0.527321 10.6582 0.0761492 12.4804 0.0175554 14.9355C-0.0176008 16.4531 0.0409929 17.25 0.304665 18.5156C1.22459 23.0039 4.39451 27.0234 8.53123 28.9453C9.89647 29.5781 10.582 29.7539 10.9512 29.5605C11.2793 29.3965 11.3086 29.2265 11.3086 27.5683V26.0625L11.1211 26.0976C11.0156 26.1152 10.5527 26.1504 10.1015 26.1679C8.58397 26.2382 7.57615 25.9629 6.88475 25.289C6.62107 25.0312 6.49217 24.8261 6.15818 24.1347C5.69529 23.1679 5.34373 22.6582 4.91014 22.33C4.74021 22.2011 4.50584 22.0195 4.38865 21.9316C4.12498 21.7265 3.95506 21.4511 4.03709 21.3691C4.07224 21.334 4.21287 21.2929 4.34764 21.2695C5.2617 21.1465 6.24021 21.7617 7.07811 22.998C7.52342 23.6601 7.96873 24.041 8.53709 24.2636C9.11717 24.4863 10.248 24.4336 11.0332 24.1406C11.2617 24.0527 11.3672 23.9824 11.3672 23.9121C11.3672 23.4961 11.7129 22.6816 12.0762 22.2539C12.3457 21.9316 12.3808 21.9609 11.5898 21.8554C9.47459 21.58 7.61717 20.6074 6.72654 19.3125C6.1992 18.5449 5.77732 17.4316 5.58396 16.289C5.46678 15.5859 5.4492 13.9394 5.55467 13.4472C5.75975 12.498 6.09373 11.7539 6.63279 11.0449C6.99021 10.582 6.99021 10.5761 6.9199 10.3418C6.63279 9.33395 6.61521 8.43161 6.87889 7.41794C7.07811 6.6445 7.1367 6.56247 7.47654 6.56247C8.15037 6.56247 9.63865 7.15426 10.8281 7.89255L11.25 8.15622L11.7656 8.03317C13.8281 7.53512 16.1719 7.53512 18.2344 8.03317L18.75 8.15622L19.1719 7.89841C20.543 7.05466 21.7676 6.56833 22.5058 6.56247C22.6582 6.56247 22.8047 6.59762 22.8398 6.63278C22.9336 6.74997 23.1914 7.66403 23.2558 8.12692C23.3672 8.87692 23.3203 9.48044 23.0859 10.3125L23.0098 10.582L23.3496 11.0156C24.293 12.2461 24.668 13.6933 24.498 15.5215C24.2695 17.9824 23.4433 19.6054 21.914 20.5957C20.8769 21.2695 19.793 21.6621 18.4277 21.8496C17.6133 21.9668 17.6601 21.9257 17.9473 22.2832C18.082 22.4472 18.2695 22.7519 18.3574 22.9511C18.6562 23.625 18.6914 23.9824 18.6914 26.6074C18.6914 29.2148 18.6973 29.2734 19.0137 29.5195C19.2656 29.7187 19.623 29.6894 20.3379 29.4199C22.3887 28.6406 24.041 27.58 25.5762 26.0449C28.0723 23.5547 29.5957 20.3847 29.9414 16.957C30.0351 16.0547 29.9883 13.8457 29.8594 13.0371C29.5137 10.9101 28.7226 8.85934 27.5684 7.11911C25.1484 3.47458 21.5508 1.17184 17.2265 0.498016C16.6406 0.404266 14.2031 0.328094 13.7109 0.386688Z" fill="white"/>
</svg>
