<svg xmlns="http://www.w3.org/2000/svg" version="1.1" xmlns:xlink="http://www.w3.org/1999/xlink" xmlns:svgjs="http://svgjs.com/svgjs" width="512" height="512" x="0" y="0" viewBox="0 0 64 64" style="enable-background:new 0 0 512 512" xml:space="preserve" class=""><g><path d="M56 37.264V31.45c0-8.35-1.09-16.674-3.242-24.74a5.005 5.005 0 0 0-4.831-3.71H43.77a3.016 3.016 0 0 0-2.982 2.625l-.508 4.06A17.12 17.12 0 0 0 37 9.076V8a5.016 5.016 0 0 0-1.468-3.542A5.01 5.01 0 0 0 32 3c-2.757 0-5 2.243-5 5v1.075c-1.13.099-2.226.306-3.28.612l-.51-4.066a3.014 3.014 0 0 0-2.98-2.62h-4.157a5.006 5.006 0 0 0-4.83 3.71A96.035 96.035 0 0 0 8 31.452v5.813A6.993 6.993 0 0 0 5 43v10c0 1.654 1.346 3 3 3h2.634c0 1.307.484 2.54 1.4 3.481A4.958 4.958 0 0 0 15.621 61h32.756c1.364 0 2.64-.54 3.589-1.519A4.947 4.947 0 0 0 53.366 56H56c1.654 0 3-1.346 3-3V43c0-2.373-1.19-4.47-3-5.736zM50.826 7.227A94.077 94.077 0 0 1 54 31.451v4.844a6.949 6.949 0 0 0-1.218-.248L52.47 25.49a16.994 16.994 0 0 0-3.004-9.19l1.196-9.53c.066.146.122.298.164.457zM34 28h-4c-1.103 0-2 .897-2 2v1H16.46a2.981 2.981 0 0 1-2.16-.912 2.962 2.962 0 0 1-.838-2.143l.068-2.395c.244-8.159 6.834-14.55 15-14.55h6.94c8.166 0 14.756 6.391 15 14.55l.068 2.397a2.96 2.96 0 0 1-.839 2.14A2.981 2.981 0 0 1 47.54 31H36v-1c0-1.103-.897-2-2-2zm0 2v6h-4v-6zm8.771-24.121A1.01 1.01 0 0 1 43.77 5h3.96a.995.995 0 0 1 .997 1.126l-1.01 8.057a16.867 16.867 0 0 0-5.508-3.805l.562-4.499zM32 5c.795 0 1.55.314 2.118.872C34.687 6.45 35 7.205 35 8v1h-6V8c0-1.654 1.346-3 3-3zm-16.487.338A.995.995 0 0 1 16.269 5h3.961c.504 0 .933.378.997.874l.564 4.504a16.867 16.867 0 0 0-5.508 3.805l-1.01-8.058a.989.989 0 0 1 .24-.787zM10 31.451a94.08 94.08 0 0 1 3.174-24.224c.042-.159.098-.31.164-.457l1.195 9.53a16.994 16.994 0 0 0-3.003 9.19l-.312 10.557c-.419.046-.825.13-1.218.248V31.45zM7 53V43c0-2.468 1.802-4.51 4.157-4.915L10.679 54H8a1 1 0 0 1-1-1zm9.754 6 .26-11.023a.994.994 0 0 1 1-.977h27.972c.548 0 .988.43 1 .976L47.247 59zm33.777-.911c-.36.372-.805.625-1.287.77l-.258-10.93a2.983 2.983 0 0 0-3-2.929H18.014a2.984 2.984 0 0 0-3 2.93l-.257 10.929a2.965 2.965 0 0 1-1.288-.77 2.969 2.969 0 0 1-.845-2.18l.72-24.024A4.943 4.943 0 0 0 16.46 33H28v3c0 1.103.897 2 2 2h4c1.102 0 2-.897 2-2v-3h11.54a4.944 4.944 0 0 0 3.116-1.115l.72 24.025a2.968 2.968 0 0 1-.845 2.179zM57 53a1 1 0 0 1-1 1h-2.68l-.477-15.915C55.198 38.49 57 40.532 57 43z" ></path><path d="M43.016 17.638a1 1 0 0 0 .628-1.78C41.317 13.989 38.49 13 35.47 13h-6.94c-3.02 0-5.846.989-8.174 2.859a1 1 0 0 0 1.254 1.559C23.577 15.835 25.97 15 28.53 15h6.94c2.56 0 4.953.836 6.92 2.417.185.149.406.221.626.221zM42 49H22a1 1 0 1 0 0 2h2v1a1 1 0 1 0 2 0v-1h16a1 1 0 1 0 0-2z" ></path></g></svg>