<svg xmlns="http://www.w3.org/2000/svg" version="1.1" xmlns:xlink="http://www.w3.org/1999/xlink" xmlns:svgjs="http://svgjs.com/svgjs" width="512" height="512" x="0" y="0" viewBox="0 0 512 512" style="enable-background:new 0 0 512 512" xml:space="preserve" class=""><g><path d="M495.971 492.917h-19.51V263.75h3.398c9.957 0 18.058-8.101 18.058-18.058s-8.101-18.058-18.058-18.058H356.64v-44.18a28.614 28.614 0 0 0-9.886-21.637l-72.005-62.395c-3.715-3.217-8.101-5.242-12.672-6.223V55.981h47.075c7.181 0 13.023-5.842 13.023-13.023V19.957c0-7.181-5.842-13.023-13.023-13.023h-53.15a6.075 6.075 0 0 0-6.075 6.075v80.189c-4.573.981-8.961 3.006-12.676 6.225l-72.005 62.395a28.613 28.613 0 0 0-9.886 21.637v44.18H32.142c-9.957 0-18.058 8.101-18.058 18.058s8.101 18.058 18.058 18.058h3.389v229.167H16.029c-3.355 0-6.075 2.719-6.075 6.075s2.719 6.075 6.075 6.075H495.97c3.355 0 6.075-2.719 6.075-6.075s-2.719-6.076-6.074-6.076zM262.077 19.083h47.075c.479 0 .873.392.873.873v23.001a.875.875 0 0 1-.873.873h-47.075zm202.234 473.834H356.64V263.75h107.671zm15.547-253.134c3.256 0 5.909 2.653 5.909 5.909s-2.653 5.909-5.909 5.909l-123.219-.004v-11.813h123.219zm-453.625 5.909a5.919 5.919 0 0 1 5.909-5.909H155.36v11.813l-123.218.004a5.917 5.917 0 0 1-5.909-5.908zM47.68 263.75h107.68v229.167H47.68zm201.745 229.167h-33.468V389.356c0-8.951 7.28-16.236 16.231-16.236h17.237zm46.619 0h-34.47V373.12h18.239c8.951 0 16.231 7.285 16.231 16.236zM279.813 360.97h-47.625c-15.647 0-28.381 12.733-28.381 28.385v103.561H167.52c-.002-64.265-.009-226.82-.009-309.463 0-4.784 2.074-9.321 5.69-12.458l72.005-62.39c6.155-5.33 15.434-5.344 21.589 0l72.005 62.39a16.481 16.481 0 0 1 5.69 12.458l-.024 309.463h-36.273v-103.56c0-15.652-12.733-28.386-28.38-28.386z"  class=""></path><path d="M255.499 239.793c22.643 0 41.062-18.419 41.062-41.057 0-22.643-18.419-41.062-41.062-41.062s-41.062 18.419-41.062 41.062c.001 22.638 18.419 41.057 41.062 41.057zm0-69.97c15.942 0 28.912 12.971 28.912 28.912s-12.971 28.907-28.912 28.907c-15.942 0-28.912-12.966-28.912-28.907s12.971-28.912 28.912-28.912z"  class=""></path><path d="M253.292 208.906h12.482a6.075 6.075 0 1 0 0-12.15h-6.407v-12.695c0-3.355-2.719-6.075-6.075-6.075s-6.075 2.719-6.075 6.075v18.77a6.075 6.075 0 0 0 6.075 6.075zM205.022 283.536h101.957a6.075 6.075 0 1 0 0-12.15H205.022a6.075 6.075 0 1 0 0 12.15zM313.053 320.037a6.075 6.075 0 0 0-6.075-6.075H205.022a6.075 6.075 0 1 0 0 12.15h101.957a6.074 6.074 0 0 0 6.074-6.075zM112.329 305.994H90.721c-9.33 0-16.919 7.593-16.919 16.924v21.603c0 9.331 7.589 16.924 16.919 16.924h21.608c9.33 0 16.919-7.593 16.919-16.924v-21.603c0-9.331-7.589-16.924-16.919-16.924zm4.77 38.527a4.776 4.776 0 0 1-4.77 4.774H90.721a4.777 4.777 0 0 1-4.77-4.774v-21.603a4.776 4.776 0 0 1 4.77-4.774h21.608c2.629 0 4.77 2.14 4.77 4.774zM112.329 395.222H90.721c-9.33 0-16.919 7.589-16.919 16.919v21.608c0 9.33 7.589 16.924 16.919 16.924h21.608c9.33 0 16.919-7.593 16.919-16.924v-21.608c0-9.331-7.589-16.919-16.919-16.919zm4.77 38.527a4.776 4.776 0 0 1-4.77 4.774H90.721a4.777 4.777 0 0 1-4.77-4.774v-21.608c0-2.629 2.14-4.77 4.77-4.77h21.608c2.629 0 4.77 2.14 4.77 4.77zM399.671 361.445h21.608c9.331 0 16.919-7.593 16.919-16.924v-21.603c0-9.331-7.589-16.924-16.919-16.924h-21.608c-9.331 0-16.919 7.593-16.919 16.924v21.603c0 9.331 7.589 16.924 16.919 16.924zm-4.77-38.527a4.776 4.776 0 0 1 4.77-4.774h21.608c2.629 0 4.77 2.14 4.77 4.774v21.603a4.776 4.776 0 0 1-4.77 4.774h-21.608a4.777 4.777 0 0 1-4.77-4.774zM399.671 450.673h21.608c9.331 0 16.919-7.593 16.919-16.924v-21.608c0-9.331-7.589-16.919-16.919-16.919h-21.608c-9.331 0-16.919 7.589-16.919 16.919v21.608c0 9.331 7.589 16.924 16.919 16.924zm-4.77-38.532c0-2.629 2.14-4.77 4.77-4.77h21.608c2.629 0 4.77 2.14 4.77 4.77v21.608a4.776 4.776 0 0 1-4.77 4.774h-21.608a4.777 4.777 0 0 1-4.77-4.774z"  class=""></path></g></svg>