<svg xmlns="http://www.w3.org/2000/svg" version="1.1" xmlns:xlink="http://www.w3.org/1999/xlink" xmlns:svgjs="http://svgjs.com/svgjs" width="512" height="512" x="0" y="0" viewBox="0 0 60 60" style="enable-background:new 0 0 512 512" xml:space="preserve" class=""><g><g fill="#000" fill-rule="nonzero"><path d="M59 53.278V30a.978.978 0 0 0-.115-.443h.01l-2.448-4.895A2.983 2.983 0 0 0 53.764 23H47v-1a1 1 0 0 0-.293-.707l-5.414-5.414A2.96 2.96 0 0 0 40 15.13V8.385l2-.537V10.277a3.065 3.065 0 0 0 1.367 2.555 1 1 0 1 0 1.11-1.664 1.068 1.068 0 0 1-.477-.891V7.223a2 2 0 0 0-.48-3.663L30.514.068a1.991 1.991 0 0 0-1.028 0L16.48 3.56a2.011 2.011 0 0 0 0 3.88l3.52.945V15h-.063c-.889 0-1.732.396-2.3 1.08l-4.4 5.28A1 1 0 0 0 13 22v1H6.236a2.983 2.983 0 0 0-2.683 1.658l-2.448 4.895h.01A.978.978 0 0 0 1 30v23.278A1.993 1.993 0 0 0 0 55v2a2 2 0 0 0 2 2h13.278c.354.617 1.01.998 1.722 1h26a1.993 1.993 0 0 0 1.722-1H58a2 2 0 0 0 2-2v-2a1.993 1.993 0 0 0-1-1.722zM44 53h-1V31h14v22zm-11 0h-6V42h6zm1-13h-8a1 1 0 0 0-1 1v12h-6V31h22v22h-6V41a1 1 0 0 0-1-1zm11-17v2H15v-2zm-2 4v2H17v-2zm10.764-2a.994.994 0 0 1 .894.553L56.382 29H45v-2a2 2 0 0 0 2-2zM30 2l13.014 3.5h-.013L30.005 9 17 5.492zm-8 6.922 7.486 2.01c.337.09.691.09 1.028 0L38 8.922V15H22zm-2.831 8.438a1 1 0 0 1 .768-.36h19.234a1 1 0 0 1 .708.293L43.586 21H16.135zM5.342 25.553A.994.994 0 0 1 6.236 25H13a2 2 0 0 0 2 2v2H3.618zM2 55h13v2H2zm14-2H3V31h14v22zm1 5v-3h26v3zm41-1H45v-2h13z"  class=""></path><path d="M27 33a1 1 0 0 0-1 1v2a1 1 0 0 0 2 0v-2a1 1 0 0 0-1-1zM13 34a1 1 0 0 0-1 1v2a1 1 0 0 0 2 0v-2a1 1 0 0 0-1-1zM7 34a1 1 0 0 0-1 1v2a1 1 0 0 0 2 0v-2a1 1 0 0 0-1-1zM13 40a1 1 0 0 0-1 1v2a1 1 0 0 0 2 0v-2a1 1 0 0 0-1-1zM7 40a1 1 0 0 0-1 1v2a1 1 0 0 0 2 0v-2a1 1 0 0 0-1-1zM13 46a1 1 0 0 0-1 1v2a1 1 0 0 0 2 0v-2a1 1 0 0 0-1-1zM7 46a1 1 0 0 0-1 1v2a1 1 0 0 0 2 0v-2a1 1 0 0 0-1-1zM53 34a1 1 0 0 0-1 1v2a1 1 0 0 0 2 0v-2a1 1 0 0 0-1-1zM47 34a1 1 0 0 0-1 1v2a1 1 0 0 0 2 0v-2a1 1 0 0 0-1-1zM53 40a1 1 0 0 0-1 1v2a1 1 0 0 0 2 0v-2a1 1 0 0 0-1-1zM47 40a1 1 0 0 0-1 1v2a1 1 0 0 0 2 0v-2a1 1 0 0 0-1-1zM53 46a1 1 0 0 0-1 1v2a1 1 0 0 0 2 0v-2a1 1 0 0 0-1-1zM47 46a1 1 0 0 0-1 1v2a1 1 0 0 0 2 0v-2a1 1 0 0 0-1-1zM33 33a1 1 0 0 0-1 1v2a1 1 0 0 0 2 0v-2a1 1 0 0 0-1-1z"  class=""></path></g></g></svg>